<?xml version="1.0" encoding="UTF-8"?>
<svg xmlns="http://www.w3.org/2000/svg" xmlns:xlink="http://www.w3.org/1999/xlink" viewBox="0 0 50 50" width="50px" height="50px">
<g id="surface34931724">
<path style=" stroke:none;fill-rule:nonzero;fill:rgb(33.725491%,34.509805%,86.666667%);fill-opacity:1;" d="M 34.414062 1.992188 C 33.378906 1.992188 32.367188 2.53125 31.8125 3.492188 C 30.984375 4.925781 31.476562 6.761719 32.910156 7.589844 C 33.382812 7.863281 33.898438 7.992188 34.410156 7.992188 C 35.445312 7.992188 36.453125 7.453125 37.011719 6.492188 C 37.835938 5.058594 37.34375 3.222656 35.910156 2.394531 C 35.4375 2.121094 34.921875 1.992188 34.414062 1.992188 Z M 17.25 6.5 C 16.285156 6.5 15.5 7.285156 15.5 8.25 C 15.5 9.214844 16.285156 10 17.25 10 C 18.214844 10 19 9.214844 19 8.25 C 19 7.285156 18.214844 6.5 17.25 6.5 Z M 12 7 C 10.894531 7 10 7.894531 10 9 C 10 10.105469 10.894531 11 12 11 C 13.105469 11 14 10.105469 14 9 C 14 7.894531 13.105469 7 12 7 Z M 22 7 C 21.171875 7 20.5 7.671875 20.5 8.5 C 20.5 9.328125 21.171875 10 22 10 C 22.828125 10 23.5 9.328125 23.5 8.5 C 23.5 7.671875 22.828125 7 22 7 Z M 26 8 C 25.171875 8 24.5 8.671875 24.5 9.5 C 24.5 10.328125 25.171875 11 26 11 C 26.828125 11 27.5 10.328125 27.5 9.5 C 27.5 8.671875 26.828125 8 26 8 Z M 36.558594 9.507812 C 35.179688 9.507812 34.058594 10.625 34.058594 12.007812 C 34.058594 13.386719 35.179688 14.507812 36.558594 14.507812 C 37.9375 14.507812 39.058594 13.386719 39.058594 12.007812 C 39.058594 10.625 37.9375 9.507812 36.558594 9.507812 Z M 29 10 C 28.449219 10 28 10.449219 28 11 C 28 11.550781 28.449219 12 29 12 C 29.550781 12 30 11.550781 30 11 C 30 10.449219 29.550781 10 29 10 Z M 42.753906 10.773438 C 41.375 10.773438 40.253906 11.894531 40.253906 13.273438 C 40.253906 14.652344 41.375 15.773438 42.753906 15.773438 C 44.132812 15.773438 45.253906 14.652344 45.253906 13.273438 C 45.253906 11.894531 44.132812 10.773438 42.753906 10.773438 Z M 18 11.5 C 17.035156 11.5 16.25 12.285156 16.25 13.25 C 16.25 14.214844 17.035156 15 18 15 C 18.964844 15 19.75 14.214844 19.75 13.25 C 19.75 12.285156 18.964844 11.5 18 11.5 Z M 13 12 C 11.894531 12 11 12.894531 11 14 C 11 15.105469 11.894531 16 13 16 C 14.105469 16 15 15.105469 15 14 C 15 12.894531 14.105469 12 13 12 Z M 22.5 12 C 21.671875 12 21 12.671875 21 13.5 C 21 14.328125 21.671875 15 22.5 15 C 23.328125 15 24 14.328125 24 13.5 C 24 12.671875 23.328125 12 22.5 12 Z M 31 12 C 30.449219 12 30 12.449219 30 13 C 30 13.550781 30.449219 14 31 14 C 31.550781 14 32 13.550781 32 13 C 32 12.449219 31.550781 12 31 12 Z M 26.5 13.125 C 25.742188 13.125 25.125 13.742188 25.125 14.5 C 25.125 15.257812 25.742188 15.875 26.5 15.875 C 27.257812 15.875 27.875 15.257812 27.875 14.5 C 27.875 13.742188 27.257812 13.125 26.5 13.125 Z M 7.5 14 C 6.121094 14 5 15.121094 5 16.5 C 5 17.878906 6.121094 19 7.5 19 C 8.878906 19 10 17.878906 10 16.5 C 10 15.121094 8.878906 14 7.5 14 Z M 29.75 15.5 C 29.058594 15.5 28.5 16.058594 28.5 16.75 C 28.5 17.441406 29.058594 18 29.75 18 C 30.441406 18 31 17.441406 31 16.75 C 31 16.058594 30.441406 15.5 29.75 15.5 Z M 35.972656 16.019531 C 34.867188 16.019531 33.972656 16.914062 33.972656 18.019531 C 33.972656 19.121094 34.867188 20.019531 35.972656 20.019531 C 37.078125 20.019531 37.972656 19.121094 37.972656 18.019531 C 37.972656 16.914062 37.078125 16.019531 35.972656 16.019531 Z M 42.167969 17.285156 C 41.066406 17.285156 40.167969 18.179688 40.167969 19.285156 C 40.167969 20.390625 41.066406 21.285156 42.167969 21.285156 C 43.273438 21.285156 44.167969 20.390625 44.167969 19.285156 C 44.167969 18.179688 43.273438 17.285156 42.167969 17.285156 Z M 20 17.5 C 19.035156 17.5 18.25 18.285156 18.25 19.25 C 18.25 20.214844 19.035156 21 20 21 C 20.964844 21 21.75 20.214844 21.75 19.25 C 21.75 18.285156 20.964844 17.5 20 17.5 Z M 15 18 C 13.894531 18 13 18.894531 13 20 C 13 21.105469 13.894531 22 15 22 C 16.105469 22 17 21.105469 17 20 C 17 18.894531 16.105469 18 15 18 Z M 24.5 18 C 23.671875 18 23 18.671875 23 19.5 C 23 20.328125 23.671875 21 24.5 21 C 25.328125 21 26 20.328125 26 19.5 C 26 18.671875 25.328125 18 24.5 18 Z M 47 18.917969 C 45.894531 18.917969 45 19.816406 45 20.917969 C 45 22.023438 45.894531 22.917969 47 22.917969 C 48.105469 22.917969 49 22.023438 49 20.917969 C 49 19.816406 48.105469 18.917969 47 18.917969 Z M 28.5 19 C 27.671875 19 27 19.671875 27 20.5 C 27 21.328125 27.671875 22 28.5 22 C 29.328125 22 30 21.328125 30 20.5 C 30 19.671875 29.328125 19 28.5 19 Z M 9.5 20 C 8.121094 20 7 21.121094 7 22.5 C 7 23.878906 8.121094 25 9.5 25 C 10.878906 25 12 23.878906 12 22.5 C 12 21.121094 10.878906 20 9.5 20 Z M 34.121094 20.972656 C 33.15625 20.972656 32.371094 21.757812 32.371094 22.722656 C 32.371094 23.691406 33.15625 24.472656 34.121094 24.472656 C 35.089844 24.472656 35.871094 23.691406 35.871094 22.722656 C 35.871094 21.757812 35.089844 20.972656 34.121094 20.972656 Z M 40.316406 22.242188 C 39.351562 22.242188 38.566406 23.027344 38.566406 23.992188 C 38.566406 24.957031 39.351562 25.742188 40.316406 25.742188 C 41.285156 25.742188 42.066406 24.957031 42.066406 23.992188 C 42.066406 23.027344 41.285156 22.242188 40.316406 22.242188 Z M 21.121094 23.8125 C 20.289062 23.8125 19.621094 24.484375 19.621094 25.3125 C 19.621094 26.140625 20.289062 26.8125 21.121094 26.8125 C 21.949219 26.8125 22.621094 26.140625 22.621094 25.3125 C 22.621094 24.484375 21.949219 23.8125 21.121094 23.8125 Z M 3 24 C 1.34375 24 0 25.34375 0 27 C 0 28.65625 1.34375 30 3 30 C 4.65625 30 6 28.65625 6 27 C 6 25.34375 4.65625 24 3 24 Z M 45.023438 24.089844 C 44.058594 24.089844 43.273438 24.875 43.273438 25.839844 C 43.273438 26.808594 44.058594 27.589844 45.023438 27.589844 C 45.988281 27.589844 46.773438 26.808594 46.773438 25.839844 C 46.773438 24.875 45.988281 24.089844 45.023438 24.089844 Z M 17.246094 24.855469 C 16.558594 24.855469 15.996094 25.414062 15.996094 26.105469 C 15.996094 26.796875 16.558594 27.355469 17.246094 27.355469 C 17.9375 27.355469 18.496094 26.796875 18.496094 26.105469 C 18.496094 25.414062 17.9375 24.855469 17.246094 24.855469 Z M 31.65625 24.996094 C 30.828125 24.996094 30.15625 25.667969 30.15625 26.496094 C 30.15625 27.324219 30.828125 27.996094 31.65625 27.996094 C 32.484375 27.996094 33.15625 27.324219 33.15625 26.496094 C 33.15625 25.667969 32.484375 24.996094 31.65625 24.996094 Z M 13.375 25.898438 C 12.824219 25.898438 12.375 26.347656 12.375 26.898438 C 12.375 27.449219 12.824219 27.898438 13.375 27.898438 C 13.925781 27.898438 14.375 27.449219 14.375 26.898438 C 14.375 26.347656 13.925781 25.898438 13.375 25.898438 Z M 37.855469 26.261719 C 37.023438 26.261719 36.355469 26.933594 36.355469 27.761719 C 36.355469 28.59375 37.023438 29.261719 37.855469 29.261719 C 38.683594 29.261719 39.355469 28.59375 39.355469 27.761719 C 39.355469 26.933594 38.683594 26.261719 37.855469 26.261719 Z M 22.253906 27.777344 C 21.425781 27.777344 20.753906 28.449219 20.753906 29.277344 C 20.753906 30.105469 21.425781 30.777344 22.253906 30.777344 C 23.082031 30.777344 23.753906 30.105469 23.753906 29.277344 C 23.753906 28.449219 23.082031 27.777344 22.253906 27.777344 Z M 28.789062 27.960938 C 27.960938 27.960938 27.289062 28.632812 27.289062 29.460938 C 27.289062 30.289062 27.960938 30.960938 28.789062 30.960938 C 29.617188 30.960938 30.289062 30.289062 30.289062 29.460938 C 30.289062 28.632812 29.617188 27.960938 28.789062 27.960938 Z M 42.433594 28.332031 C 41.605469 28.332031 40.933594 29 40.933594 29.832031 C 40.933594 30.660156 41.605469 31.332031 42.433594 31.332031 C 43.261719 31.332031 43.933594 30.660156 43.933594 29.832031 C 43.933594 29 43.261719 28.332031 42.433594 28.332031 Z M 12.644531 28.628906 C 12.089844 28.628906 11.644531 29.078125 11.644531 29.628906 C 11.644531 30.183594 12.089844 30.628906 12.644531 30.628906 C 13.195312 30.628906 13.644531 30.183594 13.644531 29.628906 C 13.644531 29.078125 13.195312 28.628906 12.644531 28.628906 Z M 16.925781 28.667969 C 16.164062 28.667969 15.550781 29.285156 15.550781 30.042969 C 15.550781 30.804688 16.164062 31.417969 16.925781 31.417969 C 17.683594 31.417969 18.300781 30.804688 18.300781 30.042969 C 18.300781 29.285156 17.683594 28.667969 16.925781 28.667969 Z M 34.988281 29.355469 C 34.226562 29.355469 33.613281 29.96875 33.613281 30.730469 C 33.613281 31.488281 34.226562 32.105469 34.988281 32.105469 C 35.746094 32.105469 36.363281 31.488281 36.363281 30.730469 C 36.363281 29.96875 35.746094 29.355469 34.988281 29.355469 Z M 31.410156 31.167969 C 30.722656 31.167969 30.160156 31.726562 30.160156 32.417969 C 30.160156 33.109375 30.722656 33.667969 31.410156 33.667969 C 32.101562 33.667969 32.660156 33.109375 32.660156 32.417969 C 32.660156 31.726562 32.101562 31.167969 31.410156 31.167969 Z M 39.566406 31.292969 C 38.738281 31.292969 38.066406 31.964844 38.066406 32.792969 C 38.066406 33.625 38.738281 34.292969 39.566406 34.292969 C 40.394531 34.292969 41.066406 33.625 41.066406 32.792969 C 41.066406 31.964844 40.394531 31.292969 39.566406 31.292969 Z M 12.84375 31.480469 C 12.015625 31.480469 11.34375 32.148438 11.34375 32.980469 C 11.34375 33.808594 12.015625 34.480469 12.84375 34.480469 C 13.671875 34.480469 14.34375 33.808594 14.34375 32.980469 C 14.34375 32.148438 13.671875 31.480469 12.84375 31.480469 Z M 24.285156 31.550781 C 23.320312 31.550781 22.535156 32.332031 22.535156 33.300781 C 22.535156 34.265625 23.320312 35.050781 24.285156 35.050781 C 25.253906 35.050781 26.035156 34.265625 26.035156 33.300781 C 26.035156 32.332031 25.253906 31.550781 24.285156 31.550781 Z M 18.058594 32.511719 C 17.230469 32.511719 16.558594 33.179688 16.558594 34.011719 C 16.558594 34.839844 17.230469 35.511719 18.058594 35.511719 C 18.886719 35.511719 19.558594 34.839844 19.558594 34.011719 C 19.558594 33.179688 18.886719 32.511719 18.058594 32.511719 Z M 36.769531 33.644531 C 36.214844 33.644531 35.769531 34.089844 35.769531 34.644531 C 35.769531 35.195312 36.214844 35.644531 36.769531 35.644531 C 37.320312 35.644531 37.769531 35.195312 37.769531 34.644531 C 37.769531 34.089844 37.320312 33.644531 36.769531 33.644531 Z M 34.035156 34.375 C 33.484375 34.375 33.035156 34.824219 33.035156 35.375 C 33.035156 35.925781 33.484375 36.375 34.035156 36.375 C 34.585938 36.375 35.035156 35.925781 35.035156 35.375 C 35.035156 34.824219 34.585938 34.375 34.035156 34.375 Z M 27.4375 35.253906 C 26.332031 35.253906 25.4375 36.148438 25.4375 37.253906 C 25.4375 38.359375 26.332031 39.253906 27.4375 39.253906 C 28.542969 39.253906 29.4375 38.359375 29.4375 37.253906 C 29.4375 36.148438 28.542969 35.253906 27.4375 35.253906 Z M 13.980469 35.441406 C 13.148438 35.441406 12.480469 36.113281 12.480469 36.941406 C 12.480469 37.769531 13.148438 38.441406 13.980469 38.441406 C 14.808594 38.441406 15.480469 37.769531 15.480469 36.941406 C 15.480469 36.113281 14.808594 35.441406 13.980469 35.441406 Z M 20.089844 36.28125 C 19.125 36.28125 18.339844 37.066406 18.339844 38.03125 C 18.339844 38.996094 19.125 39.78125 20.089844 39.78125 C 21.058594 39.78125 21.839844 38.996094 21.839844 38.03125 C 21.839844 37.066406 21.058594 36.28125 20.089844 36.28125 Z M 32.351562 38.269531 C 30.972656 38.269531 29.851562 39.386719 29.851562 40.769531 C 29.851562 42.148438 30.972656 43.269531 32.351562 43.269531 C 33.730469 43.269531 34.851562 42.148438 34.851562 40.769531 C 34.851562 39.386719 33.730469 38.269531 32.351562 38.269531 Z M 16.136719 39.433594 C 15.171875 39.433594 14.386719 40.214844 14.386719 41.183594 C 14.386719 42.148438 15.171875 42.933594 16.136719 42.933594 C 17.101562 42.933594 17.886719 42.148438 17.886719 41.183594 C 17.886719 40.214844 17.101562 39.433594 16.136719 39.433594 Z M 23.238281 39.988281 C 22.136719 39.988281 21.238281 40.882812 21.238281 41.988281 C 21.238281 43.089844 22.136719 43.988281 23.238281 43.988281 C 24.34375 43.988281 25.238281 43.089844 25.238281 41.988281 C 25.238281 40.882812 24.34375 39.988281 23.238281 39.988281 Z M 38.996094 40.277344 C 38.488281 40.277344 37.972656 40.410156 37.5 40.679688 C 36.066406 41.507812 35.574219 43.34375 36.402344 44.777344 C 36.957031 45.742188 37.96875 46.277344 39.003906 46.277344 C 39.511719 46.277344 40.027344 46.152344 40.5 45.878906 C 41.933594 45.050781 42.425781 43.214844 41.597656 41.777344 C 41.042969 40.816406 40.03125 40.277344 38.996094 40.277344 Z M 28.15625 43 C 26.777344 43 25.65625 44.121094 25.65625 45.5 C 25.65625 46.878906 26.777344 48 28.15625 48 C 29.535156 48 30.65625 46.878906 30.65625 45.5 C 30.65625 44.121094 29.535156 43 28.15625 43 Z M 19.410156 43.351562 C 18.304688 43.351562 17.410156 44.246094 17.410156 45.351562 C 17.410156 46.457031 18.304688 47.351562 19.410156 47.351562 C 20.515625 47.351562 21.410156 46.457031 21.410156 45.351562 C 21.410156 44.246094 20.515625 43.351562 19.410156 43.351562 Z M 19.410156 43.351562 "/>
</g>
</svg>
