<svg xmlns="http://www.w3.org/2000/svg" xmlns:xlink="http://www.w3.org/1999/xlink" id="158d9566-b2be-4f0f-bcdd-c9ed3d10c246" data-name="Layer 1" width="974" height="714.52" viewBox="0 0 974 714.52"><defs><linearGradient id="0716a939-3e70-42e2-b2a4-62d4623bb7b7" x1="574.72" y1="713.31" x2="574.72" y2="358.2" gradientUnits="userSpaceOnUse"><stop offset="0" stop-color="gray" stop-opacity="0.25"/><stop offset="0.54" stop-color="gray" stop-opacity="0.12"/><stop offset="1" stop-color="gray" stop-opacity="0.1"/></linearGradient><linearGradient id="246fdb29-47ea-4475-84d7-0cdffd1436cc" x1="2975.38" y1="757.78" x2="2975.38" y2="205.6" gradientTransform="matrix(-1, 0, 0, 1, 3906, 0)" xlink:href="#0716a939-3e70-42e2-b2a4-62d4623bb7b7"/></defs><title>make_it_rain</title><path d="M241.9,454.74c-12.81,3.87-24.8,13.24-28,26.24-3.66,14.94,4.78,30,6,45.34,3.94,50.26-67.56,85.72-57.36,135.09,4.05,19.63,20.42,34.07,36.55,46,25.84,19.05,54.51,35.88,86.26,40.63,48.19,7.22,98.54-14,145.38-.59,37.78,10.82,66.69,42.53,104.21,54.23,28.56,8.91,59.33,5.4,89,1.79,16-1.94,32.76-4.18,45.67-13.78,24-17.87,25.51-53.16,41.58-78.45,24.82-39,79.24-46.66,124.87-39.08S926,698.4,972.23,696.88c9.88-.33,20-1.67,28.62-6.52,10.48-5.89,17.56-16.27,23.82-26.54a429.45,429.45,0,0,0,62.27-213.39c.27-12.95-.19-26.46-6.28-37.89-7.7-14.46-23.09-23.11-38.41-28.93-36.79-14-77.43-16.29-113.48-32.08C894,336.3,865.84,309.59,835.56,286.7a496.49,496.49,0,0,0-204.49-91.07c-17.39-3.36-35.44-5.76-52.72-1.88-19.91,4.47-37.07,16.88-52.5,30.24-41.05,35.54-73.95,79.39-111.78,118.34a636.39,636.39,0,0,1-84.92,73.23c-14,10.09-28.88,22.07-44.48,29.53C270.39,451.91,257,450.19,241.9,454.74Z" transform="translate(-113 -92.74)" fill="#6c63ff" opacity="0.2"/><path d="M424.88,138.88s-38.65,51.33-11,111.16S365.69,406,365.69,406" transform="translate(-113 -92.74)" fill="none" stroke="#535461" stroke-miterlimit="10" stroke-width="2"/><path d="M442.21,119.67c-3.07,13.21-17.76,21.08-17.76,21.08s-9.7-13.55-6.63-26.76,11-22.65,17.76-21.08S445.28,106.46,442.21,119.67Z" transform="translate(-113 -92.74)" fill="#8ed16f"/><ellipse cx="429.54" cy="116.72" rx="7.71" ry="2.89" transform="translate(105.49 415.88) rotate(-76.9)" fill="#8ed16f"/><ellipse cx="429.54" cy="116.72" rx="7.71" ry="2.89" transform="translate(105.49 415.88) rotate(-76.9)" opacity="0.3"/><path d="M435.53,178.36c-12.76,4.6-27.35-3.46-27.35-3.46s6.1-15.51,18.87-20.1,25-3,27.35,3.46S448.29,173.76,435.53,178.36Z" transform="translate(-113 -92.74)" fill="#8ed16f"/><ellipse cx="431.13" cy="166.12" rx="7.71" ry="2.89" transform="matrix(0.94, -0.34, 0.34, 0.94, -143.78, 63.15)" fill="#8ed16f"/><ellipse cx="431.13" cy="166.12" rx="7.71" ry="2.89" transform="matrix(0.94, -0.34, 0.34, 0.94, -143.78, 63.15)" opacity="0.3"/><path d="M432.56,225.13c-12.76,4.6-27.35-3.46-27.35-3.46s6.1-15.51,18.87-20.1,25-3,27.35,3.46S445.32,220.54,432.56,225.13Z" transform="translate(-113 -92.74)" fill="#8ed16f"/><ellipse cx="428.15" cy="212.9" rx="7.71" ry="2.89" transform="translate(-159.81 64.91) rotate(-19.8)" fill="#8ed16f"/><ellipse cx="428.15" cy="212.9" rx="7.71" ry="2.89" transform="translate(-159.81 64.91) rotate(-19.8)" opacity="0.3"/><path d="M447.47,280c-12.76,4.6-27.35-3.46-27.35-3.46s6.1-15.51,18.87-20.1,25-3,27.35,3.46S460.23,275.43,447.47,280Z" transform="translate(-113 -92.74)" fill="#8ed16f"/><ellipse cx="443.06" cy="267.79" rx="7.71" ry="2.89" transform="translate(-177.52 73.21) rotate(-19.8)" fill="#8ed16f"/><ellipse cx="443.06" cy="267.79" rx="7.71" ry="2.89" transform="translate(-177.52 73.21) rotate(-19.8)" opacity="0.3"/><path d="M437.77,330.18c-12.76,4.6-27.35-3.46-27.35-3.46s6.1-15.51,18.87-20.1,25-3,27.35,3.46S450.54,325.59,437.77,330.18Z" transform="translate(-113 -92.74)" fill="#8ed16f"/><ellipse cx="433.37" cy="317.95" rx="7.71" ry="2.89" transform="matrix(0.94, -0.34, 0.34, 0.94, -195.09, 72.89)" fill="#8ed16f"/><ellipse cx="433.37" cy="317.95" rx="7.71" ry="2.89" transform="matrix(0.94, -0.34, 0.34, 0.94, -195.09, 72.89)" opacity="0.3"/><path d="M377.92,191.65c9.42,9.76,26.07,9,26.07,9s1.37-16.61-8.05-26.37-21.09-13.78-26.07-9S368.5,181.89,377.92,191.65Z" transform="translate(-113 -92.74)" fill="#8ed16f"/><ellipse cx="387.28" cy="182.62" rx="2.89" ry="7.71" transform="translate(-131.18 227.49) rotate(-43.99)" fill="#8ed16f"/><ellipse cx="387.28" cy="182.62" rx="2.89" ry="7.71" transform="translate(-131.18 227.49) rotate(-43.99)" opacity="0.3"/><path d="M372.51,346.64c9.42,9.76,26.07,9,26.07,9s1.37-16.61-8.05-26.37-21.09-13.78-26.07-9S363.09,336.88,372.51,346.64Z" transform="translate(-113 -92.74)" fill="#8ed16f"/><ellipse cx="381.86" cy="337.61" rx="2.89" ry="7.71" transform="translate(-240.35 267.22) rotate(-43.99)" fill="#8ed16f"/><ellipse cx="381.86" cy="337.61" rx="2.89" ry="7.71" transform="translate(-240.35 267.22) rotate(-43.99)" opacity="0.3"/><path d="M385,246.43c12.14,6.06,27.57-.24,27.57-.24s-4.25-16.11-16.38-22.17-24.48-6-27.57.24S372.86,240.37,385,246.43Z" transform="translate(-113 -92.74)" fill="#8ed16f"/><ellipse cx="390.8" cy="234.8" rx="2.89" ry="7.71" transform="translate(-106.8 386.88) rotate(-63.48)" fill="#8ed16f"/><ellipse cx="390.8" cy="234.8" rx="2.89" ry="7.71" transform="translate(-106.8 386.88) rotate(-63.48)" opacity="0.3"/><path d="M390.09,301c12.14,6.06,27.57-.24,27.57-.24s-4.25-16.11-16.38-22.17-24.48-6-27.57.24S378,295,390.09,301Z" transform="translate(-113 -92.74)" fill="#8ed16f"/><ellipse cx="395.9" cy="289.38" rx="2.89" ry="7.71" transform="translate(-152.82 421.65) rotate(-63.48)" fill="#8ed16f"/><ellipse cx="395.9" cy="289.38" rx="2.89" ry="7.71" transform="translate(-152.82 421.65) rotate(-63.48)" opacity="0.3"/><path d="M238.73,249.21s70.59,70.59,30.74,175.34,68.31,278.94,68.31,278.94-1.16-.17-3.31-.55c-145-25.59-217-191.41-136.4-314.59C228,342.55,252.65,288.83,238.73,249.21Z" transform="translate(-113 -92.74)" fill="#8ed16f"/><path d="M113,534.72s80.55-12.83,87.89,59.36,154.89,82.2,154.89,82.2-1,.66-2.77,1.84c-121.83,80-238.29,50.94-220.74-55.25C138.81,583.38,138.27,543.73,113,534.72Z" transform="translate(-113 -92.74)" fill="#8ed16f"/><g opacity="0.3"><path d="M113,534.72s80.55-12.83,87.89,59.36,154.89,82.2,154.89,82.2-1,.66-2.77,1.84c-121.83,80-238.29,50.94-220.74-55.25C138.81,583.38,138.27,543.73,113,534.72Z" transform="translate(-113 -92.74)" fill="#fff"/></g><ellipse cx="105.34" cy="383.3" rx="22.15" ry="57.79" fill="#8ed16f"/><ellipse cx="105.34" cy="383.3" rx="22.15" ry="57.79" opacity="0.3"/><ellipse cx="192.81" cy="662.42" rx="14.93" ry="33.23" transform="translate(-524.92 237.62) rotate(-45)" fill="#8ed16f"/><ellipse cx="192.81" cy="662.42" rx="14.93" ry="33.23" transform="translate(-524.92 237.62) rotate(-45)" opacity="0.3"/><path d="M836.89,358.2H312.55a23.89,23.89,0,0,0-23.89,23.89V689.42a23.89,23.89,0,0,0,23.89,23.89H836.89a23.89,23.89,0,0,0,23.89-23.89V382.09A23.89,23.89,0,0,0,836.89,358.2Z" transform="translate(-113 -92.74)" fill="url(#0716a939-3e70-42e2-b2a4-62d4623bb7b7)"/><rect x="182.39" y="269.64" width="558.65" height="346.75" rx="24.81" ry="24.81" fill="#6c63ff"/><rect x="182.39" y="330.32" width="558.65" height="63.57" fill="#6c63ff"/><rect x="182.39" y="330.32" width="558.65" height="63.57" opacity="0.3"/><rect x="235.37" y="441.09" width="452.7" height="30.82" fill="#d6d6e3"/><circle cx="272.93" cy="548.97" r="44.31" fill="#6c63ff"/><circle cx="272.93" cy="548.97" r="44.31" opacity="0.3"/><rect x="824.9" y="271.1" width="51.15" height="1.08" transform="translate(1587.96 450.53) rotate(-180)" fill="#8ed16f"/><rect x="824.9" y="272.17" width="51.15" height="1.08" transform="translate(1587.96 452.68) rotate(-180)" fill="#8ed16f"/><rect x="824.9" y="272.17" width="51.15" height="1.08" transform="translate(1587.96 452.68) rotate(-180)" opacity="0.1"/><rect x="824.9" y="273.25" width="51.15" height="1.08" transform="translate(1587.96 454.84) rotate(-180)" fill="#8ed16f"/><rect x="824.9" y="274.33" width="51.15" height="1.08" transform="translate(1587.96 456.99) rotate(-180)" fill="#8ed16f"/><rect x="824.9" y="274.33" width="51.15" height="1.08" transform="translate(1587.96 456.99) rotate(-180)" opacity="0.1"/><rect x="824.9" y="275.4" width="51.15" height="1.08" transform="translate(1587.96 459.14) rotate(-180)" fill="#8ed16f"/><rect x="824.9" y="276.48" width="51.15" height="1.08" transform="translate(1587.96 461.29) rotate(-180)" fill="#8ed16f"/><rect x="824.9" y="276.48" width="51.15" height="1.08" transform="translate(1587.96 461.29) rotate(-180)" opacity="0.1"/><rect x="824.9" y="277.55" width="51.15" height="1.08" transform="translate(1587.96 463.44) rotate(-180)" fill="#8ed16f"/><rect x="824.9" y="278.63" width="51.15" height="1.08" transform="translate(1587.96 465.59) rotate(-180)" fill="#8ed16f"/><rect x="824.9" y="278.63" width="51.15" height="1.08" transform="translate(1587.96 465.59) rotate(-180)" opacity="0.1"/><rect x="824.9" y="262.49" width="51.15" height="1.08" transform="translate(1587.96 433.32) rotate(-180)" fill="#8ed16f"/><rect x="824.9" y="263.57" width="51.15" height="1.08" transform="translate(1587.96 435.47) rotate(-180)" fill="#8ed16f"/><rect x="824.9" y="263.57" width="51.15" height="1.08" transform="translate(1587.96 435.47) rotate(-180)" opacity="0.1"/><rect x="824.9" y="264.64" width="51.15" height="1.08" transform="translate(1587.96 437.63) rotate(-180)" fill="#8ed16f"/><rect x="824.9" y="265.72" width="51.15" height="1.08" transform="translate(1587.96 439.78) rotate(-180)" fill="#8ed16f"/><rect x="824.9" y="265.72" width="51.15" height="1.08" transform="translate(1587.96 439.78) rotate(-180)" opacity="0.1"/><rect x="824.9" y="266.8" width="51.15" height="1.08" transform="translate(1587.96 441.93) rotate(-180)" fill="#8ed16f"/><rect x="824.9" y="267.87" width="51.15" height="1.08" transform="translate(1587.96 444.08) rotate(-180)" fill="#8ed16f"/><rect x="824.9" y="267.87" width="51.15" height="1.08" transform="translate(1587.96 444.08) rotate(-180)" opacity="0.1"/><rect x="824.9" y="268.95" width="51.15" height="1.08" transform="translate(1587.96 446.23) rotate(-180)" fill="#8ed16f"/><rect x="824.9" y="270.02" width="51.15" height="1.08" transform="translate(1587.96 448.38) rotate(-180)" fill="#8ed16f"/><rect x="824.9" y="270.02" width="51.15" height="1.08" transform="translate(1587.96 448.38) rotate(-180)" opacity="0.1"/><rect x="821.56" y="278.75" width="18.64" height="36.33" transform="translate(1480.61 647.76) rotate(-169.48)" fill="#8ed16f"/><ellipse cx="831.11" cy="296.96" rx="7.65" ry="3.82" transform="translate(274.45 967.17) rotate(-79.48)" fill="#8ed16f"/><ellipse cx="831.11" cy="296.96" rx="7.65" ry="3.82" transform="translate(274.45 967.17) rotate(-79.48)" opacity="0.1"/><rect x="824.7" y="354.13" width="18.64" height="36.33" transform="translate(1473.07 797.84) rotate(-169.48)" fill="#8ed16f"/><ellipse cx="834.25" cy="372.34" rx="7.65" ry="3.82" transform="translate(202.89 1031.88) rotate(-79.48)" fill="#8ed16f"/><ellipse cx="834.25" cy="372.34" rx="7.65" ry="3.82" transform="translate(202.89 1031.88) rotate(-79.48)" opacity="0.1"/><rect x="757.49" y="201.78" width="18.64" height="36.33" transform="translate(95.43 696.93) rotate(-61.58)" fill="#8ed16f"/><ellipse cx="766.7" cy="220.15" rx="3.82" ry="7.65" transform="matrix(0.48, -0.88, 0.88, 0.48, 95.18, 696.94)" fill="#8ed16f"/><ellipse cx="766.7" cy="220.15" rx="3.82" ry="7.65" transform="matrix(0.48, -0.88, 0.88, 0.48, 95.18, 696.94)" opacity="0.1"/><rect x="687.34" y="525.31" width="18.64" height="36.33" transform="translate(-225.88 804.78) rotate(-61.58)" fill="#8ed16f"/><ellipse cx="696.55" cy="543.69" rx="3.82" ry="7.65" transform="translate(-226.12 804.8) rotate(-61.58)" fill="#8ed16f"/><ellipse cx="696.55" cy="543.69" rx="3.82" ry="7.65" transform="translate(-226.12 804.8) rotate(-61.58)" opacity="0.1"/><rect x="644.41" y="258.32" width="18.64" height="36.33" transform="translate(-13.56 627.11) rotate(-61.58)" fill="#8ed16f"/><ellipse cx="653.62" cy="276.69" rx="3.82" ry="7.65" transform="translate(-13.8 627.12) rotate(-61.58)" fill="#8ed16f"/><ellipse cx="653.62" cy="276.69" rx="3.82" ry="7.65" transform="translate(-13.8 627.12) rotate(-61.58)" opacity="0.1"/><rect x="698.21" y="201.78" width="18.64" height="36.33" transform="translate(64.36 644.79) rotate(-61.58)" fill="#8ed16f"/><ellipse cx="707.42" cy="220.15" rx="3.82" ry="7.65" transform="translate(64.12 644.8) rotate(-61.58)" fill="#8ed16f"/><ellipse cx="707.42" cy="220.15" rx="3.82" ry="7.65" transform="translate(64.12 644.8) rotate(-61.58)" opacity="0.1"/><rect x="733.11" y="270.67" width="18.64" height="36.33" transform="translate(-140.01 -10.27) rotate(-6.24)" fill="#8ed16f"/><ellipse cx="742.19" cy="288.87" rx="3.82" ry="7.65" transform="translate(-140.02 -10.3) rotate(-6.24)" fill="#8ed16f"/><ellipse cx="742.19" cy="288.87" rx="3.82" ry="7.65" transform="translate(-140.02 -10.3) rotate(-6.24)" opacity="0.1"/><rect x="860.17" y="468.42" width="18.64" height="36.33" transform="translate(-160.77 4.72) rotate(-6.24)" fill="#8ed16f"/><ellipse cx="869.25" cy="486.61" rx="3.82" ry="7.65" transform="translate(-160.77 4.7) rotate(-6.24)" fill="#8ed16f"/><ellipse cx="869.25" cy="486.61" rx="3.82" ry="7.65" transform="translate(-160.77 4.7) rotate(-6.24)" opacity="0.1"/><rect x="679.37" y="345.22" width="18.64" height="36.33" transform="translate(-71.67 703.39) rotate(-61.58)" fill="#8ed16f"/><ellipse cx="688.57" cy="363.6" rx="3.82" ry="7.65" transform="translate(-71.92 703.4) rotate(-61.58)" fill="#8ed16f"/><ellipse cx="688.57" cy="363.6" rx="3.82" ry="7.65" transform="translate(-71.92 703.4) rotate(-61.58)" opacity="0.1"/><rect x="598.74" y="322.19" width="18.64" height="36.33" transform="translate(-93.67 620.41) rotate(-61.58)" fill="#8ed16f"/><ellipse cx="607.95" cy="340.56" rx="3.82" ry="7.65" transform="matrix(0.48, -0.88, 0.88, 0.48, -93.91, 620.42)" fill="#8ed16f"/><ellipse cx="607.95" cy="340.56" rx="3.82" ry="7.65" transform="matrix(0.48, -0.88, 0.88, 0.48, -93.91, 620.42)" opacity="0.1"/><rect x="572.92" y="709.89" width="18.64" height="36.33" transform="translate(-448.18 800.89) rotate(-61.58)" fill="#8ed16f"/><ellipse cx="582.13" cy="728.27" rx="3.82" ry="7.65" transform="translate(-448.43 800.9) rotate(-61.58)" fill="#8ed16f"/><ellipse cx="582.13" cy="728.27" rx="3.82" ry="7.65" transform="translate(-448.43 800.9) rotate(-61.58)" opacity="0.1"/><rect x="554.27" y="711.81" width="18.64" height="36.33" transform="translate(-369.92 1058.26) rotate(-79.49)" fill="#8ed16f"/><rect x="554.27" y="711.81" width="18.64" height="36.33" transform="translate(-369.92 1058.26) rotate(-79.49)" opacity="0.05"/><ellipse cx="563.55" cy="730.21" rx="3.82" ry="7.65" transform="translate(-370.18 1058.41) rotate(-79.49)" fill="#8ed16f"/><ellipse cx="563.55" cy="730.21" rx="3.82" ry="7.65" transform="translate(-370.18 1058.41) rotate(-79.49)" opacity="0.1"/><rect x="557.62" y="722.8" width="18.64" height="36.33" transform="translate(-377.99 1070.54) rotate(-79.49)" fill="#8ed16f"/><ellipse cx="566.9" cy="741.2" rx="3.82" ry="7.65" transform="translate(-378.26 1070.69) rotate(-79.49)" fill="#8ed16f"/><ellipse cx="566.9" cy="741.2" rx="3.82" ry="7.65" transform="translate(-378.26 1070.69) rotate(-79.49)" opacity="0.1"/><rect x="610.61" y="757.01" width="18.64" height="36.33" transform="translate(-469.87 858.73) rotate(-61.58)" fill="#8ed16f"/><ellipse cx="619.82" cy="775.39" rx="3.82" ry="7.65" transform="translate(-470.11 858.74) rotate(-61.58)" fill="#8ed16f"/><ellipse cx="619.82" cy="775.39" rx="3.82" ry="7.65" transform="translate(-470.11 858.74) rotate(-61.58)" opacity="0.1"/><rect x="591.97" y="758.92" width="18.64" height="36.33" transform="translate(-385.42 1133.84) rotate(-79.49)" fill="#8ed16f"/><rect x="591.97" y="758.92" width="18.64" height="36.33" transform="translate(-385.42 1133.84) rotate(-79.49)" opacity="0.05"/><ellipse cx="601.25" cy="777.32" rx="3.82" ry="7.65" transform="translate(-385.69 1133.99) rotate(-79.49)" fill="#8ed16f"/><ellipse cx="601.25" cy="777.32" rx="3.82" ry="7.65" transform="translate(-385.69 1133.99) rotate(-79.49)" opacity="0.1"/><rect x="595.31" y="769.92" width="18.64" height="36.33" transform="translate(-393.5 1146.12) rotate(-79.49)" fill="#8ed16f"/><ellipse cx="604.59" cy="788.32" rx="3.82" ry="7.65" transform="translate(-393.76 1146.27) rotate(-79.49)" fill="#8ed16f"/><ellipse cx="604.59" cy="788.32" rx="3.82" ry="7.65" transform="translate(-393.76 1146.27) rotate(-79.49)" opacity="0.1"/><rect x="667.15" y="726.65" width="18.64" height="36.33" transform="translate(-413.53 892.54) rotate(-61.58)" fill="#8ed16f"/><ellipse cx="676.36" cy="745.02" rx="3.82" ry="7.65" transform="translate(-413.78 892.55) rotate(-61.58)" fill="#8ed16f"/><ellipse cx="676.36" cy="745.02" rx="3.82" ry="7.65" transform="translate(-413.78 892.55) rotate(-61.58)" opacity="0.1"/><rect x="648.51" y="728.56" width="18.64" height="36.33" transform="translate(-309.34 1164.61) rotate(-79.49)" fill="#8ed16f"/><rect x="648.51" y="728.56" width="18.64" height="36.33" transform="translate(-309.34 1164.61) rotate(-79.49)" opacity="0.05"/><ellipse cx="657.79" cy="746.96" rx="3.82" ry="7.65" transform="translate(-309.61 1164.76) rotate(-79.49)" fill="#8ed16f"/><ellipse cx="657.79" cy="746.96" rx="3.82" ry="7.65" transform="translate(-309.61 1164.76) rotate(-79.49)" opacity="0.1"/><rect x="651.85" y="739.55" width="18.64" height="36.33" transform="translate(-317.41 1176.89) rotate(-79.49)" fill="#8ed16f"/><ellipse cx="661.13" cy="757.96" rx="3.82" ry="7.65" transform="translate(-317.68 1177.04) rotate(-79.49)" fill="#8ed16f"/><ellipse cx="661.13" cy="757.96" rx="3.82" ry="7.65" transform="translate(-317.68 1177.04) rotate(-79.49)" opacity="0.1"/></svg>